<svg xmlns="http://www.w3.org/2000/svg" width="642.246" height="160.792" viewBox="0 0 642.246 160.792">
  <g id="footer-logo" transform="translate(4498.246 447.451)">
    <g id="Group_49" data-name="Group 49" transform="translate(-4498.237 -447.451)">
      <path id="Path_27" data-name="Path 27" d="M150.353,147.445c-.379-4.255-.693-8.516-1.156-12.762a53.461,53.461,0,0,1-.467-11.245,20.746,20.746,0,0,1,1.656-7.011c1.788-3.735,4.808-5.3,8.9-4.553a25.234,25.234,0,0,1,9.932,4.445,37.828,37.828,0,0,1,11.036,12.432,46.926,46.926,0,0,1,5.806,15.378c1.015,5.857.325,11.536-3.523,16.394a42.66,42.66,0,0,1-3.882,3.859c-3.322,3.23-6.665,6.44-9.971,9.687q-6.886,6.764-13.726,13.575-5.139,5.125-10.205,10.323-7.014,7.19-13.979,14.427-6.978,7.217-13.945,14.443a38.611,38.611,0,0,1-13.21,9.216c-8.841,3.6-17.164,2.59-24.945-2.95a45.185,45.185,0,0,1-6.416-6.011q-9.078-9.586-18.167-19.162c-2.973-3.144-5.909-6.322-8.875-9.473q-6.671-7.092-13.358-14.17-6.083-6.473-12.14-12.97C14.637,165.882,9.536,160.465,4.483,155a16.372,16.372,0,0,1-4.46-12.289,13.932,13.932,0,0,1,5.833-10.867,14,14,0,0,1,11.162-2.721,11.045,11.045,0,0,1,6.319,4.157q7.685,9.03,15.432,18.006c2.713,3.132,5.561,6.147,8.277,9.277a29.842,29.842,0,0,1,6.442,13.771c.564,2.69.824,5.442,1.277,8.157a16.286,16.286,0,0,0,2.389,6.465,8.571,8.571,0,0,0,6.478,3.971,10.089,10.089,0,0,0,6.289-1.016c2.993-1.683,4.266-4.368,4.5-7.68.182-2.549-.635-4.926-1.176-7.354A49.115,49.115,0,0,1,71.709,165.5a18.957,18.957,0,0,1,.681-4.79c1-3.55,3.47-4.874,7.045-3.97a17.213,17.213,0,0,1,6.693,3.714,29.256,29.256,0,0,1,5.606,6.244,43.588,43.588,0,0,0,11.045,11.232,33.1,33.1,0,0,0,11.922,5.412,19.434,19.434,0,0,0,17.223-4.056,50.34,50.34,0,0,0,9.92-11.352c2.171-3.189,4.249-6.441,6.354-9.676a13.012,13.012,0,0,0,1.73-5.86c.179-1.635.187-3.29.27-4.936l.152-.023" transform="translate(0 -77.375)" fill="#f8f8f8"/>
      <path id="Path_28" data-name="Path 28" d="M173.961,64.359a30.367,30.367,0,0,1-12.784-2.643c-4.587-2.026-9.113-4.192-13.673-6.281a17.027,17.027,0,0,0-5.751-1.688,11.816,11.816,0,0,0-9.2,3.254c-1.6,1.47-2.9,3.263-4.4,4.848a30.058,30.058,0,0,1-3.618,3.445c-2.561,1.929-5.269,1.764-7.933.112a28.188,28.188,0,0,1-5.919-5.166c-2.889-3.181-5.83-6.325-8.537-9.657a19.2,19.2,0,0,1-4.288-10.9,22.368,22.368,0,0,1,4.37-14.957,76.326,76.326,0,0,1,5.232-5.99c3.068-3.47,6.091-6.982,9.221-10.4A27.753,27.753,0,0,1,125.51,2.08a21.268,21.268,0,0,1,9.8-2.071A23.564,23.564,0,0,1,146.548,3.42a37.362,37.362,0,0,1,6.621,5.288c3.372,3.144,6.741,6.291,10.167,9.374A104.212,104.212,0,0,1,174.8,29.974a68.93,68.93,0,0,1,8.928,13.5,21.691,21.691,0,0,1,2.526,9.471c-.024,4.339-2.2,7.46-5.821,9.633a12.929,12.929,0,0,1-6.471,1.785" transform="translate(-67.749)" fill="#f8f8f8"/>
      <path id="Path_31" data-name="Path 31" d="M615.433,62.608h-5.842V51.737h-.905c-3.147,0-6.294-.017-9.441.017-.655.007-.9-.124-.884-.84.053-1.8.018-3.6.018-5.518h11.165V34.2h5.839c.014.308.04.607.041.906,0,3.121.015,6.243-.011,9.363-.005.664.107.943.885.929,3.094-.054,6.19-.021,9.285-.016.226,0,.452.029.731.049v5.913h-2.407q-3.753-.01-7.506-.023c-.958,0-.974,0-.975,1q0,4.72.007,9.44v.847" transform="translate(-414.52 -23.691)" fill="#f8f8f8"/>
    </g>
    <g id="Group_50" data-name="Group 50" transform="translate(175 -178)">
      <path id="Path_32" data-name="Path 32" d="M124.226,653.233c.811-3.542,1.574-7.053,2.421-10.542q4.891-20.153,9.826-40.294c1.368-5.612,2.709-11.231,4.131-16.83.137-.539.747-1.353,1.161-1.366,3.288-.113,6.581-.063,10.206-.063-.977,3.629-1.864,6.966-2.773,10.3q-7.413,27.175-14.836,54.346c-1.488,5.443-2.968,10.888-4.562,16.3a2.308,2.308,0,0,1-1.665,1.309c-2.6.146-5.214.045-7.821.082a1.656,1.656,0,0,1-1.872-1.44q-6.442-23.6-12.964-47.17-2.852-10.349-5.728-20.691c-.146-.524-.365-1.027-.718-2-1.108,4.108-2.069,7.767-3.081,11.412q-8.044,28.967-16.073,57.939c-.414,1.5-1.026,2.055-2.6,1.964a71.277,71.277,0,0,0-7.439,0c-1.374.064-1.847-.488-2.169-1.738q-4.57-17.7-9.259-35.351c-3.949-14.818-7.964-29.618-11.945-44.429a3.366,3.366,0,0,1-.006-.7H57.694c5.282,22.956,10.578,45.978,15.95,69.32.613-2.447,1.126-4.662,1.725-6.854q4.792-17.511,9.625-35.012c2.372-8.561,4.83-17.1,7.166-25.668.4-1.484,1.008-2.039,2.607-1.964,3.174.148,6.361.092,9.54.011a1.784,1.784,0,0,1,2.125,1.544c3.948,14.183,8.087,28.314,11.9,42.531,2.215,8.255,3.933,16.644,5.9,25.058" transform="translate(-4498.237 -810)" fill="#f8f8f8"/>
      <path id="Path_33" data-name="Path 33" d="M271.11,584.141c3.1,0,6.072-.066,9.037.079.388.019,1.027,1.117,1.035,1.722.076,5.595.037,11.192.034,16.789v10.193c1.417-1.266,2.5-2.4,3.736-3.309,7.438-5.454,15.34-5.276,23.4-1.662,5.928,2.656,9.59,7.507,11.69,13.43,3.819,10.77,3.863,21.633-1.058,32.047-4.632,9.8-14.534,16.08-26.631,13.853a18.322,18.322,0,0,1-10.441-6.2c-.374-.417-.73-.85-1.4-1.628v6.855H271.1Zm41.133,52.778c-.123-4.641-.449-9.056-2.211-13.23-2.388-5.653-6.488-9.321-12.7-9.746-6.082-.417-10.8,2.616-13.568,7.806-4.927,9.237-4.61,19.049-1.046,28.559a13.415,13.415,0,0,0,12.217,8.958c6.23.41,10.647-2.647,13.82-7.722,2.827-4.522,3.3-9.641,3.486-14.625" transform="translate(-4552.67 -810.011)" fill="#f8f8f8"/>
      <path id="Path_34" data-name="Path 34" d="M351.362,613.731h9.118v6.613l.427.194c.919-.962,1.827-1.935,2.756-2.885,8.023-8.2,23.575-6.688,31.307,1.649,4.409,4.755,6.568,10.532,7.512,16.771a43.027,43.027,0,0,1-2.513,22.81,24.638,24.638,0,0,1-27.495,15.17,19.867,19.867,0,0,1-9.832-5.507c-.273-.257-.551-.508-1.231-1.136v28.483c-3.213,0-6.244.042-9.27-.061-.319-.011-.852-.859-.873-1.337-.08-1.84.033-3.686.033-5.53q-.015-36.632-.037-73.264c0-.618.061-1.235.1-1.972m9.072,29.914c.215,2.464.28,4.953.694,7.383a24.228,24.228,0,0,0,1.681,5.621c4.3,9.782,15.54,12.78,23.482,5.386,3.614-3.364,5.23-7.717,5.827-12.507.95-7.617.9-15.1-3.085-22.03a14.11,14.11,0,0,0-14.509-6.909c-4.745.824-7.923,3.823-10.364,7.7-2.946,4.68-3.635,9.934-3.726,15.355" transform="translate(-4572.083 -816.817)" fill="#f8f8f8"/>
      <path id="Path_35" data-name="Path 35" d="M196.811,646.167c.41,7.22,2.413,13.4,8.515,17.271a16.181,16.181,0,0,0,18,.226,14.95,14.95,0,0,0,5.944-7.485c.689-1.667,1.4-2.363,3.326-1.978,2.591.518,5.262.645,8.453,1A73.146,73.146,0,0,1,238,662.164c-4,7.06-10.194,10.966-18.2,12.006-6.007.78-11.955.534-17.6-1.872a23.716,23.716,0,0,1-13.745-14.682,41.25,41.25,0,0,1,.431-28.882c4.039-10.381,13.3-16.389,24.461-16.442,11.548-.054,20.03,4.855,24.912,15.435,2.47,5.355,2.919,11.132,2.885,16.958-.007,1.167-.556,1.49-1.657,1.488q-20.037-.035-40.073-.01h-2.607m33.415-8.649c-.426-6.767-2.789-12.178-8.9-15.125a15.81,15.81,0,0,0-17.371,1.762c-4.295,3.267-6.325,7.833-6.558,13.363Z" transform="translate(-4532.063 -816.835)" fill="#f8f8f8"/>
      <path id="Path_36" data-name="Path 36" d="M573.831,630.376c-.763-3.8-2.494-6.782-6.065-8.337a17.487,17.487,0,0,0-9.517-1.23,25.667,25.667,0,0,0-5.512,1.3c-2.842,1.071-4.878,3.951-4.675,6.341.272,3.2,2.333,5.069,5.159,5.96,5.25,1.655,10.582,3.048,15.861,4.614,2.487.739,4.966,1.531,7.387,2.462,9.8,3.766,11.424,14.1,7.754,21.664-3.1,6.4-8.711,9.462-15.306,10.723a36.77,36.77,0,0,1-19-1.125c-6.26-2.131-10.054-6.614-12.223-12.665a19.387,19.387,0,0,1-.949-3.476c-.071-.449.334-1.365.639-1.42,2.987-.536,6-.936,8.823-1.348a47.771,47.771,0,0,0,2.842,6.524c1.978,3.177,5.116,4.777,8.791,5.4a20.717,20.717,0,0,0,12.3-1.2,9.112,9.112,0,0,0,4.855-5.109c1.5-3.825-.2-7.453-4.373-8.906-3.109-1.083-6.335-1.825-9.485-2.8-4.6-1.418-9.3-2.6-13.741-4.425a15.113,15.113,0,0,1-5.516-23.986c3.215-3.775,7.427-5.633,12.168-6.464,7.446-1.3,14.681-.7,21.473,2.845,4.852,2.532,7.076,6.913,7.939,12.095a1.723,1.723,0,0,1-.852,1.434c-2.867.461-5.761.765-8.772,1.132" transform="translate(-4617.025 -816.822)" fill="#f8f8f8"/>
      <path id="Path_37" data-name="Path 37" d="M500.289,666.084c-2.678,2.135-5.126,4.576-8.007,6.29-8.211,4.884-21.174,2.867-27.014-4.024a17.448,17.448,0,0,1-3.888-11.316c-.185-13.738-.149-27.479-.242-41.218-.009-1.325.427-1.791,1.751-1.755,2.724.074,5.452.022,8.351.022.036.8.093,1.481.093,2.16,0,10.751-.024,21.5,0,32.253,0,2.159.144,4.319.258,6.476.455,8.593,7.276,12.455,14.9,10.914,8.239-1.664,12.455-7.029,12.579-15.753.159-11.194.067-22.391.08-33.587,0-2.477,0-2.457,2.464-2.432,2.035.02,4.075.061,6.106-.048,1.439-.077,1.819.441,1.814,1.854q-.082,25.574-.055,51.147c0,1.718-.034,3.436.014,5.153.029,1.017-.267,1.527-1.393,1.5q-3.15-.077-6.3.018c-1.2.035-1.549-.517-1.526-1.618.044-2.073.013-4.147.013-6.035" transform="translate(-4598.709 -817.263)" fill="#f8f8f8"/>
      <path id="Path_38" data-name="Path 38" d="M441.4,666.483c-3.065,0-6.036.041-9-.056-.337-.011-.887-.774-.928-1.224-.124-1.388-.051-2.795-.051-4.193V584.28H441.4Z" transform="translate(-4591.503 -810.048)" fill="#f8f8f8"/>
    </g>
  </g>
</svg>
