<svg xmlns="http://www.w3.org/2000/svg" width="78.395" height="78.493" viewBox="0 0 78.395 78.493">
  <path id="ic-arrow-open" d="M50,10.75A39.251,39.251,0,0,0,15.253,68.272a39.248,39.248,0,0,0,66.731,4.482A39.252,39.252,0,0,0,50,10.75ZM68.829,52.1l-10.7,10.958c-2.709,2.775-6.991-1.429-4.293-4.191l5.4-5.529H33.649a3.333,3.333,0,0,1,0-6.666H59.107L53.6,41.164c-2.736-2.736,1.506-6.979,4.242-4.243L68.8,47.881a3,3,0,0,1,.025,4.216Z" transform="translate(89.15 89.243) rotate(180)" fill="#fff"/>
</svg>
