<svg xmlns="http://www.w3.org/2000/svg" width="61.341" height="74.784" viewBox="0 0 61.341 74.784">
  <g id="ic-gotop" transform="translate(-41.905 0)">
    <g id="Group_49" data-name="Group 49" transform="translate(41.905 0)">
      <path id="Path_27" data-name="Path 27" d="M101.945,27.413l-.025-.025L75.775,1.209A4.07,4.07,0,0,0,75.09.662L74.337.251,73.824.08h-.376A4.828,4.828,0,0,0,71.7.08h-.753l-.582.308a4.143,4.143,0,0,0-.89.65L43.23,27.388a4.483,4.483,0,0,0-.025,6.34l.025.025a4.586,4.586,0,0,0,6.331,0L65.2,18.148a1.711,1.711,0,0,1,2.909,1.2V70.3a4.483,4.483,0,1,0,8.966,0h0V19.346a1.711,1.711,0,0,1,2.909-1.2l15.571,15.6a4.586,4.586,0,0,0,6.365,0A4.483,4.483,0,0,0,101.945,27.413Z" transform="translate(-41.905 0)" fill="#7eac46"/>
    </g>
  </g>
</svg>
