<svg xmlns="http://www.w3.org/2000/svg" width="30" height="30" viewBox="0 0 30 30">
  <g id="ic-product" transform="translate(2846 129)">
    <path id="ic-product-2" data-name="ic-product" d="M1,3.571A2.571,2.571,0,0,1,3.571,1H8.714a2.571,2.571,0,0,1,2.571,2.571V8.714a2.571,2.571,0,0,1-2.571,2.571H3.571A2.571,2.571,0,0,1,1,8.714Zm13.714,0A2.571,2.571,0,0,1,17.286,1h5.143A2.571,2.571,0,0,1,25,3.571V8.714a2.571,2.571,0,0,1-2.571,2.571H17.286a2.571,2.571,0,0,1-2.571-2.571ZM1,17.286a2.571,2.571,0,0,1,2.571-2.571H8.714a2.571,2.571,0,0,1,2.571,2.571v5.143A2.571,2.571,0,0,1,8.714,25H3.571A2.571,2.571,0,0,1,1,22.429Zm13.714,0a2.571,2.571,0,0,1,2.571-2.571h5.143A2.571,2.571,0,0,1,25,17.286v5.143A2.571,2.571,0,0,1,22.429,25H17.286a2.571,2.571,0,0,1-2.571-2.571Z" transform="translate(-2844 -127)" fill="#397995"/>
    <rect id="Rectangle_92" data-name="Rectangle 92" width="30" height="30" transform="translate(-2846 -129)" fill="none"/>
  </g>
</svg>
