<svg id="ic-plus-square" xmlns="http://www.w3.org/2000/svg" width="24" height="24" viewBox="0 0 24 24">
  <g id="plus-square" opacity="0.55">
    <path id="Path_2" data-name="Path 2" d="M21,1.5A1.5,1.5,0,0,1,22.5,3V21A1.5,1.5,0,0,1,21,22.5H3A1.5,1.5,0,0,1,1.5,21V3A1.5,1.5,0,0,1,3,1.5ZM3,0A3,3,0,0,0,0,3V21a3,3,0,0,0,3,3H21a3,3,0,0,0,3-3V3a3,3,0,0,0-3-3Z" transform="translate(0)" fill="#397995"/>
    <path id="Path_3" data-name="Path 3" d="M9.673,4a.709.709,0,0,1,.709.709V8.964h4.255a.709.709,0,0,1,0,1.418H10.383v4.255a.709.709,0,0,1-1.418,0V10.383H4.709a.709.709,0,1,1,0-1.418H8.964V4.709A.709.709,0,0,1,9.673,4Z" transform="translate(2.327 2.327)" fill="#397995"/>
  </g>
</svg>
