<svg xmlns="http://www.w3.org/2000/svg" width="22" height="22" viewBox="0 0 22 22">
  <g id="ic-retrieve" transform="translate(-1709 -61)">
    <rect id="Rectangle_15" data-name="Rectangle 15" width="22" height="22" transform="translate(1709 61)" fill="none"/>
    <path id="list-check" d="M7.28,16.915a.785.785,0,0,1,.785-.785H22.194a.785.785,0,0,1,0,1.57H8.065A.785.785,0,0,1,7.28,16.915Zm0-6.28a.785.785,0,0,1,.785-.785H22.194a.785.785,0,0,1,0,1.57H8.065A.785.785,0,0,1,7.28,10.635Zm0-6.28a.785.785,0,0,1,.785-.785H22.194a.785.785,0,0,1,0,1.57H8.065A.785.785,0,0,1,7.28,4.355ZM5.481,2.23a.785.785,0,0,1,0,1.112L3.126,5.7a.785.785,0,0,1-1.112,0L1.23,4.911A.786.786,0,0,1,2.341,3.8l.229.231,1.8-1.8a.785.785,0,0,1,1.112,0Zm0,6.28a.785.785,0,0,1,0,1.112L3.126,11.976a.785.785,0,0,1-1.112,0l-.785-.785a.786.786,0,0,1,1.112-1.112l.229.231,1.8-1.8a.785.785,0,0,1,1.112,0Zm0,6.28a.785.785,0,0,1,0,1.112L3.126,18.255a.785.785,0,0,1-1.112,0l-.785-.785a.786.786,0,0,1,1.112-1.112l.229.231,1.8-1.8a.785.785,0,0,1,1.112,0Z" transform="translate(1708.001 61.514)" fill="#397995" fill-rule="evenodd"/>
  </g>
</svg>
